<svg xmlns="http://www.w3.org/2000/svg" viewBox="0 0 365.26 66.86"><path d="M364.84,0q-142,2.34-284,1.38Q40.92,1.1,1,.57c-.53,0-1.58.8-.59.81q142,1.89,284,.49,39.92-.4,79.83-1.06c.52,0,1.58-.83.58-.81Z" style="fill:#d06b6d"/><path d="M199.32,21.4c-4.58-1.87-1.94-10.56-1.94-10.56,3-3.08,2.89-8.69,2.89-8.69-4.34-1.53-9.37,0-9.37,0a12.74,12.74,0,0,1-8.27,3.92,12.78,12.78,0,0,1-8.28-3.92s-5-1.53-9.37,0c0,0-.09,5.61,2.9,8.69,0,0,2.64,8.69-1.94,10.56,0,0-6.82,35.74-3.64,39,0,0,11.45.5,12,4.49,0,0,.39,2.18,8.37,2,8,.19,8.37-2,8.37-2,.5-4,12-4.49,12-4.49C206.14,57.14,199.32,21.4,199.32,21.4Z" style="fill:#d06b6d"/></svg>