<svg xmlns="http://www.w3.org/2000/svg" viewBox="0 0 365.26 60.93"><path d="M364.84,0q-142,2.34-284,1.38Q40.92,1.1,1,.57c-.53,0-1.58.8-.59.81q142,1.89,284,.49,39.92-.4,79.83-1.06c.52,0,1.58-.83.58-.81Z" style="fill:#d06b6d"/><path d="M102.89,19.67c-4.16-1.69-1.76-9.58-1.76-9.58,2.71-2.8,2.63-7.89,2.63-7.89-3.94-1.39-8.51,0-8.51,0a11.57,11.57,0,0,1-7.51,3.56A11.57,11.57,0,0,1,80.23,2.2s-4.56-1.39-8.5,0c0,0-.09,5.09,2.63,7.89,0,0,2.39,7.89-1.76,9.58,0,0-6.19,32.44-3.31,35.38,0,0,10.4.45,10.86,4.07,0,0,.35,2,7.59,1.8,7.25.18,7.6-1.8,7.6-1.8.46-3.62,10.86-4.07,10.86-4.07C109.08,52.11,102.89,19.67,102.89,19.67Z" style="fill:#d06b6d"/></svg>