<svg xmlns="http://www.w3.org/2000/svg" viewBox="0 0 365.26 50.77"><path d="M364.84,0q-142,2.34-284,1.38Q40.92,1.1,1,.57c-.53,0-1.58.8-.59.81q142,1.89,284,.49,39.92-.4,79.83-1.06c.52,0,1.58-.83.58-.81Z" style="fill:#d06b6d"/><path d="M41.2,16c-3.5-1.43-1.48-8.08-1.48-8.08C42,5.54,41.93,1.24,41.93,1.24a13.16,13.16,0,0,0-7.17,0,9.74,9.74,0,0,1-6.33,3,9.77,9.77,0,0,1-6.34-3,13.15,13.15,0,0,0-7.17,0s-.07,4.3,2.22,6.66c0,0,2,6.65-1.48,8.08,0,0-5.22,27.35-2.79,29.83,0,0,8.76.38,9.15,3.43,0,0,.3,1.67,6.41,1.52,6.11.15,6.4-1.52,6.4-1.52.39-3.05,9.16-3.43,9.16-3.43C46.42,43.33,41.2,16,41.2,16Z" style="fill:#d06b6d"/></svg>